<svg id="图层_1" data-name="图层 1" xmlns="http://www.w3.org/2000/svg" xmlns:xlink="http://www.w3.org/1999/xlink" viewBox="0 0 1238 415"><defs><style>.cls-1{fill:url(#未命名的渐变_286);}.cls-2{fill:url(#未命名的渐变_286-2);}.cls-3{fill:url(#未命名的渐变_2);}.cls-4{fill:#060628;}.cls-5{opacity:0.9;}.cls-6{fill:#2970ff;}.cls-7{clip-path:url(#clip-path);}.cls-8{fill:url(#未命名的渐变_1173);}.cls-9{clip-path:url(#clip-path-2);}.cls-10{fill:url(#未命名的渐变_1173-2);}.cls-11{clip-path:url(#clip-path-3);}.cls-12{fill:url(#未命名的渐变_1173-3);}.cls-13{fill:#17a0ff;}.cls-14{fill:#805cff;}</style><linearGradient id="未命名的渐变_286" x1="284.93" y1="-415.07" x2="252.07" y2="-352.71" gradientTransform="matrix(1, 0.03, -0.03, 1, 21.41, 515.5)" gradientUnits="userSpaceOnUse"><stop offset="0" stop-color="#4380ff"/><stop offset="1" stop-color="#3125bc"/></linearGradient><linearGradient id="未命名的渐变_286-2" x1="275.92" y1="-246.84" x2="238.37" y2="-321.95" xlink:href="#未命名的渐变_286"/><linearGradient id="未命名的渐变_2" x1="129.87" y1="-365.17" x2="215.7" y2="-345.72" xlink:href="#未命名的渐变_286"/><clipPath id="clip-path"><path class="cls-1" d="M356.22,124.53v0a71.5,71.5,0,0,0-53.94,65h0c.05-.58.09-1.2.11-1.8a35.32,35.32,0,0,0-48-34.06l0-.06a58.93,58.93,0,0,0,34.26-70.07l0,0a56.18,56.18,0,0,0,67.55,41Z"/></clipPath><linearGradient id="未命名的渐变_1173" x1="236.17" y1="-225.59" x2="275.69" y2="-189.58" gradientTransform="translate(59.25 365.14) rotate(-3.85)" gradientUnits="userSpaceOnUse"><stop offset="0" stop-color="aqua"/><stop offset="1" stop-color="#0080ff"/></linearGradient><clipPath id="clip-path-2"><path class="cls-2" d="M352.21,262.09a70.23,70.23,0,0,0-17-2.6,71.09,71.09,0,0,0-70,49.42l-.16-.05A95.73,95.73,0,0,0,243,212.41a35.28,35.28,0,0,0,59.28-22.83h0c0,.68-.07,1.37-.09,2.07A71.47,71.47,0,0,0,352.21,262.09Z"/></clipPath><linearGradient id="未命名的渐变_1173-2" x1="259.91" y1="-117.8" x2="208.18" y2="-99.67" xlink:href="#未命名的渐变_1173"/><clipPath id="clip-path-3"><path class="cls-3" d="M254.37,153.66l0,.06a35.29,35.29,0,0,0-13.26,56.84A95.77,95.77,0,0,0,147,187.21a50.94,50.94,0,0,0,30.59-65.42,58.84,58.84,0,0,0,76.78,31.87Z"/></clipPath><linearGradient id="未命名的渐变_1173-3" x1="152.58" y1="-165.75" x2="171.55" y2="-206.5" xlink:href="#未命名的渐变_1173"/></defs><path class="cls-4" d="M468.94,132h44.47c38,0,70.34,21.57,70.34,65.1s-32.33,65.11-70.34,65.11H468.94Zm42.32,108.82c23.7,0,46.23-11.54,46.23-43.72s-22.53-43.9-46.23-43.9H494.8v87.62Z"/><path class="cls-4" d="M603.93,132H659c28.61,0,45.66,16.74,45.66,40.36s-17,40.37-45.66,40.37H630V262.2H603.93Zm53.88,60.08c15.28,0,21.55-9.3,21.55-19.72s-6.27-19.71-21.55-19.71H630v39.43Z"/><g class="cls-5"><path class="cls-4" d="M782.8,200.05c0-44.45,32.92-66.59,68.58-66.59,33.69,0,58.38,18.79,60.54,45.76H885.86c-2.35-14.7-15.87-24.55-34.68-24.55-24.69,0-43.49,16.55-43.49,45.38s18.8,46.32,43.1,46.32c18.61,0,36.44-11.72,36.44-25.67,0-4.09-2.74-6.69-7.05-6.69H852.35V195.22H888.8c12,0,22.72,8.93,22.72,21.39v48.55H888.4V244.51c-5.09,13.21-20.17,22.14-38.59,22.14C815.13,266.65,782.8,244.51,782.8,200.05Z"/><path class="cls-4" d="M934.06,135h91.3v21.2H959.92v31.63h52.51V209H959.92v34.79h67.59v21.39H934.06Z"/><path class="cls-4" d="M1047.69,135h28l59.37,91.89V135h25.86V265.16h-27.82l-59.56-91.71v91.71h-25.87Z"/></g><rect class="cls-4" x="717.13" y="187.55" width="39.3" height="19.18"/><path class="cls-6" d="M354.45,262.75c-.75-.21-1.49-.43-2.24-.66C353,262.29,353.7,262.51,354.45,262.75Z"/><path class="cls-1" d="M356.22,124.53v0a71.5,71.5,0,0,0-53.94,65h0c.05-.58.09-1.2.11-1.8a35.32,35.32,0,0,0-48-34.06l0-.06a58.93,58.93,0,0,0,34.26-70.07l0,0a56.18,56.18,0,0,0,67.55,41Z"/><g class="cls-7"><path class="cls-8" d="M254.48,153.91S291.69,137,352.57,125.3c-1.41,28.28-48.67,74.9-48.67,74.9l-49.42-46.29"/></g><path class="cls-2" d="M352.21,262.09a70.23,70.23,0,0,0-17-2.6,71.09,71.09,0,0,0-70,49.42l-.16-.05A95.73,95.73,0,0,0,243,212.41a35.28,35.28,0,0,0,59.28-22.83h0c0,.68-.07,1.37-.09,2.07A71.47,71.47,0,0,0,352.21,262.09Z"/><g class="cls-9"><path class="cls-10" d="M302,191.64s-17.35,73.77-35.26,112.56c-37.17-13.49-30-97.67-30-97.67L302,191.64"/></g><path class="cls-6" d="M243,212.41c-.63-.59-1.25-1.2-1.84-1.85C241.77,211.15,242.38,211.78,243,212.41Z"/><path class="cls-6" d="M177.46,121.47c-.14-.33-.26-.67-.4-1C177.2,120.79,177.34,121.14,177.46,121.47Z"/><path class="cls-6" d="M146.81,187.27c-1,.35-2,.68-3,1C144.79,187.89,145.79,187.57,146.81,187.27Z"/><path class="cls-3" d="M254.37,153.66l0,.06a35.29,35.29,0,0,0-13.26,56.84A95.77,95.77,0,0,0,147,187.21a50.94,50.94,0,0,0,30.59-65.42,58.84,58.84,0,0,0,76.78,31.87Z"/><g class="cls-11"><path class="cls-12" d="M177.59,121.79s13.13,39.51,63.55,88.77c4-24.45,22.47-63.94,22.47-63.94l-86-24.83"/></g><path class="cls-13" d="M284.53,84.72a55,55,0,0,0-18.59-28.08,54.13,54.13,0,0,0-32.29-11.86c-.58,0-1.17,0-1.75,0a54.59,54.59,0,0,0-51.12,73.52c.1.24.18.46.24.65s.28.68.42,1l.1.26a54.65,54.65,0,0,0,48.67,33.6c.58,0,1.17,0,1.75,0A54.53,54.53,0,0,0,286.46,101,54.9,54.9,0,0,0,284.53,84.72Zm-46.2,30.05a16.74,16.74,0,0,1-21.86-9.07l0-.09a2.49,2.49,0,0,1-.11-.29l-.07-.16a16.75,16.75,0,1,1,31.83-10.33,16.49,16.49,0,0,1,.59,5A16.71,16.71,0,0,1,238.33,114.77Z"/><path class="cls-14" d="M422.56,148a66.7,66.7,0,0,0-46.83-21.16c-.71,0-1.43,0-2.15,0a67.45,67.45,0,0,0-16.31,2,67.17,67.17,0,0,0-50.67,61.08c0,.59-.07,1.27-.09,1.95a66.49,66.49,0,0,0,12.61,41.35A67.6,67.6,0,0,0,353.41,258c.73.2,1.47.42,2.34.69l.11,0h0A67.5,67.5,0,0,0,371.5,261l2.15,0A67.13,67.13,0,0,0,422.56,148ZM396,194.61a22.42,22.42,0,0,1-23.12,21.7,21.7,21.7,0,0,1-5.26-.79h0c-.24-.08-.46-.15-.7-.21a22.44,22.44,0,0,1-15.7-22.1c0-.22,0-.45,0-.65a22.43,22.43,0,0,1,44.8,2.06Z"/><path class="cls-6" d="M259.22,245.4a90.84,90.84,0,0,0-19.29-29.9c-.72-.69-1.33-1.31-1.91-1.93a91,91,0,0,0-60.88-25.92c-1,0-2-.05-2.94-.05a91.59,91.59,0,0,0-25.77,3.69l-.19.07c-1.2.42-2.21.75-3.17,1A91.33,91.33,0,0,0,171.38,370.2c1,0,2,.05,2.94.05A91.4,91.4,0,0,0,261,307.51a91.7,91.7,0,0,0-1.79-62.11ZM203,279.82a28.72,28.72,0,1,1-37.86-28.13l.91-.29,0,0a28.87,28.87,0,0,1,9.1-1.17,28.57,28.57,0,0,1,19.17,8.18c.19.2.37.38.56.55A28.64,28.64,0,0,1,203,279.82Z"/></svg>
